<svg xmlns="http://www.w3.org/2000/svg" viewBox="0 0 414.44 241.51">
	<path
		d="M1.39,241.51S-.3,71.14.05,71.33s21.77.19,32.62-.44a162.92,162.92,0,0,0,29-4.21,129.52,129.52,0,0,0,27.54-10c8.58-4.32,17.24-9.56,24-16.44a43.08,43.08,0,0,0,4.59-5.49c1-1.5,2-3.17,3.91-3.57s4.35.29,6.29.8A35.38,35.38,0,0,1,133.82,34c7.47,3.44,13.3,9.39,18.13,15.91a89.19,89.19,0,0,1,13.26,25.78c1.48,4.57,2.64,9.21,4.58,13.63a61.82,61.82,0,0,0,6.74,11.73c2.61,3.56,5.66,7.34,9.24,10,4,3,8.62,2.55,13.35,2.47,11.33-.18,22.66-.48,34-.17q4.14.11,8.28.34a32.22,32.22,0,0,0,7-.12,20.35,20.35,0,0,0,10-4.63,38.2,38.2,0,0,0,9.1-45.84,30.88,30.88,0,0,0-7.34-10,26.81,26.81,0,0,0-10.24-5.2C242.33,45.83,233.56,46.47,227,51a24.54,24.54,0,0,0-10.11,21,19.36,19.36,0,0,0,3.58,11.17,14.84,14.84,0,0,0,9.09,5.51,16.64,16.64,0,0,0,6,0c.78-.15,2.12-.6,2.74.19.31.39-.07.72-.35,1.14s-.51.73-.78,1.08a20.38,20.38,0,0,1-9.7,6.52c-16.57,5.41-33.26-7.15-38.83-22.31a36.82,36.82,0,0,1-2.27-12,60.62,60.62,0,0,1,1.48-13,67.43,67.43,0,0,1,9.44-23.9A59.61,59.61,0,0,1,216.74,8,58.69,58.69,0,0,1,242,.23a76.68,76.68,0,0,1,28.17,3.05,72.58,72.58,0,0,1,24.69,13.37c13.36,11,23,26.29,26.26,43.33a68.81,68.81,0,0,1,0,25.47c-.22,1.17-.45,2.35-.75,3.5a21.3,21.3,0,0,0-.74,2.56,3.63,3.63,0,0,0,.21,1.73s.22.62.32.66.89-.3,1-.35c1.16-.38,2.32-.74,3.49-1.08a82.23,82.23,0,0,1,14.91-2.91,69.58,69.58,0,0,1,53.47,18A65.83,65.83,0,0,1,414.44,155a66.94,66.94,0,0,1-19.32,47.35c-.38-2.72-.69-5.46-1.07-8.18-1.16-8.35-3.23-16.73-7.36-24.14a41.74,41.74,0,0,0-16.33-16.32,61.34,61.34,0,0,0-11.21-4.65c-1.69-.53-4.26-1.45-5.89-.27s-1.68,4-1.78,5.8c-.28,5-.1,10-.1,14.93q0,35.78,0,71.53"/>
</svg>
