<svg xmlns="http://www.w3.org/2000/svg" viewBox="0 0 414.44 241.51">
	<path
		d="M63.05,241.05V169.52c0-5,.18-10-.09-14.93-.11-1.81-.13-4.6-1.78-5.8s-4.2-.26-5.89.27a61.34,61.34,0,0,0-11.21,4.65A41.74,41.74,0,0,0,27.75,170c-4.13,7.41-6.2,15.79-7.36,24.14-.38,2.72-.69,5.46-1.07,8.18A66.94,66.94,0,0,1,0,155a65.82,65.82,0,0,1,21.38-47.46,69.62,69.62,0,0,1,53.48-18,82.23,82.23,0,0,1,14.91,2.91q1.76.51,3.48,1.08c.16,0,.91.41,1,.35a2.86,2.86,0,0,0,.32-.66,3.63,3.63,0,0,0,.21-1.73A21.3,21.3,0,0,0,94.09,89c-.3-1.15-.53-2.33-.75-3.5a68.81,68.81,0,0,1,0-25.47c3.23-17,12.9-32.38,26.26-43.33A72.58,72.58,0,0,1,144.3,3.28a76.68,76.68,0,0,1,28.17-3A58.69,58.69,0,0,1,197.7,8a59.71,59.71,0,0,1,19.5,18.51,67.43,67.43,0,0,1,9.44,23.9,60.62,60.62,0,0,1,1.48,13,36.82,36.82,0,0,1-2.27,12c-5.57,15.16-22.26,27.72-38.83,22.31a20.33,20.33,0,0,1-9.7-6.52c-.27-.35-.54-.71-.79-1.08s-.65-.75-.34-1.14c.62-.79,2-.34,2.74-.19a16.64,16.64,0,0,0,6,0A14.86,14.86,0,0,0,194,83.25a19.44,19.44,0,0,0,3.58-11.17,24.54,24.54,0,0,0-10.11-21c-6.58-4.57-15.35-5.21-22.94-3.14a26.81,26.81,0,0,0-10.24,5.2,30.74,30.74,0,0,0-7.34,10,38.2,38.2,0,0,0,9.1,45.84,20.36,20.36,0,0,0,10,4.63,32.32,32.32,0,0,0,7,.12q4.14-.24,8.28-.34c11.33-.31,22.66,0,34,.17,4.73.08,9.33.48,13.34-2.47,3.59-2.63,6.64-6.41,9.25-10a61.82,61.82,0,0,0,6.74-11.73c1.94-4.42,3.1-9.06,4.58-13.63a88.94,88.94,0,0,1,13.26-25.78c4.83-6.52,10.66-12.47,18.13-15.91A35.06,35.06,0,0,1,286.44,32c1.94-.51,4.28-1.23,6.29-.8s2.85,2.07,3.91,3.57a43.08,43.08,0,0,0,4.59,5.49c6.77,6.88,15.43,12.12,24,16.44a129.64,129.64,0,0,0,27.53,10,163.16,163.16,0,0,0,29,4.21c10.85.63,32.27.62,32.62.44S413,241.51,413,241.51"/>
</svg>
