<svg id="Слой_2" data-name="Слой 2" xmlns="http://www.w3.org/2000/svg" viewBox="0 0 300 300"><defs><style>.cls-1{fill:#5e1515;}.cls-2{fill:#ededed;}.cls-3{fill:#dac484;}</style></defs><path class="cls-1" d="M103.19,108.39q-2.75-7.53-7.63-10.65L71.3,100.67v45.75A58.46,58.46,0,0,0,84.4,148q10.57,0,16-6.93c3.66-4.63,5.48-10.41,5.48-17.3A44.61,44.61,0,0,0,103.19,108.39Zm-8.08,28.47c-1.47,1.86-4.18,4.35-10.71,4.35a49.45,49.45,0,0,1-6.31-.43V106.69l15.42-1.87a17.53,17.53,0,0,1,3.29,5.89,38,38,0,0,1,2.33,13.05C99.13,129.14,97.82,133.42,95.11,136.86Zm8.08-28.47q-2.75-7.53-7.63-10.65L71.3,100.67v45.75A58.46,58.46,0,0,0,84.4,148q10.57,0,16-6.93c3.66-4.63,5.48-10.41,5.48-17.3A44.61,44.61,0,0,0,103.19,108.39Zm-8.08,28.47c-1.47,1.86-4.18,4.35-10.71,4.35a49.45,49.45,0,0,1-6.31-.43V106.69l15.42-1.87a17.53,17.53,0,0,1,3.29,5.89,38,38,0,0,1,2.33,13.05C99.13,129.14,97.82,133.42,95.11,136.86ZM141.5,98.92a43.56,43.56,0,0,0-4.19-5.59,50.78,50.78,0,0,0-5.92-5.79c-10.84-9.05-24.82-13.61-41.68-13.61H89L21.46,75.5a6.76,6.76,0,0,0-6.61,6.65l-.21,10.38a6.8,6.8,0,0,0,5.79,6.84l8.67,1.29V192.6a116.91,116.91,0,0,0-12.4,7.26,6.75,6.75,0,0,0-2.92,6.89L15,213a6.77,6.77,0,0,0,6.67,5.53H95a6.8,6.8,0,0,0,6.81-6.65l.18-10.37a6.77,6.77,0,0,0-5.73-6.84l-18.13-2.82v-19l14.26-.13c15.88-.28,29.26-4.94,39.77-13.83,10.87-9.2,16.39-20.84,16.39-34.62A46.65,46.65,0,0,0,141.5,98.92Zm-13.77,54.85q-14,11.83-35.49,12.22l-20.94.19v31.49l23.87,3.72L95,211.76H21.63l-1.18-6.26a109.6,109.6,0,0,1,15.46-8.62V94.81L21.42,92.64l.21-10.36L89.1,80.71q23.3-.19,38,12t14.67,31.58Q141.72,141.94,127.73,153.77Zm-32.17-56L71.3,100.67v45.75A58.46,58.46,0,0,0,84.4,148q10.57,0,16-6.93c3.66-4.63,5.48-10.41,5.48-17.3a44.61,44.61,0,0,0-2.73-15.37Q100.45,100.86,95.56,97.74Zm-.45,39.12c-1.47,1.86-4.18,4.35-10.71,4.35a49.45,49.45,0,0,1-6.31-.43V106.69l15.42-1.87a17.53,17.53,0,0,1,3.29,5.89,38,38,0,0,1,2.33,13.05C99.13,129.14,97.82,133.42,95.11,136.86Z"/><path class="cls-2" d="M127.05,92.75q-14.68-12.23-37.95-12L21.63,82.28l-.21,10.36,14.49,2.17V196.88a109.6,109.6,0,0,0-15.46,8.62l1.18,6.26H95l.21-10.37L71.3,197.67V166.18L92.24,166q21.49-.39,35.49-12.22t14-29.44Q141.72,105,127.05,92.75Zm-23.86,15.64a44.61,44.61,0,0,1,2.73,15.37c0,6.89-1.82,12.67-5.48,17.3s-9,6.93-16,6.93a58.46,58.46,0,0,1-13.1-1.57V100.67l24.26-2.93Q100.44,100.85,103.19,108.39Z"/><path class="cls-1" d="M257.93,78.3a6.87,6.87,0,0,0-5.51-2.82H144.27a6.82,6.82,0,0,0-6.81,6.67l-.18,10.38a7,7,0,0,0,0,.8,6.77,6.77,0,0,0,4.19,5.59,5.91,5.91,0,0,0,1.57.45l8.67,1.29V192.6a117.28,117.28,0,0,0-12.43,7.26,6.74,6.74,0,0,0-2.89,6.89l1.15,6.26a6.81,6.81,0,0,0,6.7,5.53H217.6a6.76,6.76,0,0,0,6.78-6.65l.21-10.37a6.79,6.79,0,0,0-5.76-6.84l-18.11-2.82V167.23l36.33,1.64a6.82,6.82,0,0,0,7.09-6.78v-22.3a6.78,6.78,0,0,0-7.31-6.78l-36.11,2.76v-29l18.94,1.29,2.8,16.07a6.78,6.78,0,0,0,6.69,5.62H248.7a6.81,6.81,0,0,0,6.63-5.28,169.18,169.18,0,0,0,3.87-36.92v-.28l-.15-3.55A6.84,6.84,0,0,0,257.93,78.3Zm-5.51,9.25A161.4,161.4,0,0,1,248.7,123H229.15l-3.72-21.32L193.94,99.5v43.62l43.41-3.33v22.3l-43.41-2v37.55l23.87,3.72-.21,10.37H144.27l-1.18-6.26a108.41,108.41,0,0,1,15.45-8.62V94.81l-14.48-2.17.21-10.36H252.42l-.21.58Z"/><path class="cls-2" d="M252.21,82.86l.21,4.69A161.4,161.4,0,0,1,248.7,123H229.15l-3.72-21.32L193.94,99.5v43.62l43.41-3.33v22.3l-43.41-2v37.55l23.87,3.72-.21,10.37H144.27l-1.18-6.26a108.41,108.41,0,0,1,15.45-8.62V94.81l-14.48-2.17.21-10.36H252.42Z"/><path class="cls-1" d="M282.79,220.54a7.12,7.12,0,0,0-1.27-1.92l2.82-2.82a6.83,6.83,0,0,0,2-4.73c.05-7.07-2.26-12.9-6.92-17.36s-10.39-6.58-17.36-6.58a26,26,0,0,0-19.38,8.3c-.47.48-.93,1-1.35,1.51,0-.22,0-.47,0-.69a21.18,21.18,0,0,0-7.73-16.6c-4.81-4.09-10.9-6.15-18.15-6.15a42.89,42.89,0,0,0-22.24,6.34,6.8,6.8,0,0,0-3.31,5.61l-.07,2.48v.23a59.32,59.32,0,0,0,1.66,15.12,6.79,6.79,0,0,0,6.56,5h5.4l-12.86,13.85a6.83,6.83,0,0,0-1.64,6.17l1.68,7.21a6.79,6.79,0,0,0,6.62,5.25h36l.67,0c.23,0,.45,0,.69,0a6.82,6.82,0,0,0,6.51-4.84c.24-.8.46-1.6.67-2.43.32.34.65.68,1,1A27.29,27.29,0,0,0,262.3,242h.43l3.7-.24a7,7,0,0,0,2.9-.88l12.6-7.14a6.8,6.8,0,0,0,2.86-8.64ZM234.63,234l-1.35-.17V234h-36l-1.69-7.23,17.72-19.08c4.71-5.39,7.07-9.76,7.07-13.07a7,7,0,0,0-2.13-5.21c-1.43-1.39-3.48-2.08-6.21-2.08l-1.12.08-4,14.11h-8.82a53.61,53.61,0,0,1-1.44-13.38l.08-2.49a36,36,0,0,1,18.76-5.38q8.42,0,13.75,4.52a14.38,14.38,0,0,1,5.33,11.44,16.8,16.8,0,0,1-2.63,8.69,66.16,66.16,0,0,1-9.14,10.95L211.54,227.2l.32.56L225,225.59l6.24-9.7,3.59.9,2.6.63a69.16,69.16,0,0,1-.84,7.93A65.94,65.94,0,0,1,234.63,234Zm23.79-10.5a11.61,11.61,0,0,0,8,2.8c2.82,0,6.22-1,10.16-3l2,4.56L266,235l-3.69.25a20.61,20.61,0,0,1-14.8-5.61,18.7,18.7,0,0,1-3.89-5.25v0a20,20,0,0,1-2-9.08,23.34,23.34,0,0,1,.19-3,20.53,20.53,0,0,1,5.78-12.07,19.34,19.34,0,0,1,14.48-6.23q7.77,0,12.67,4.69c3.25,3.14,4.86,7.27,4.8,12.39l-4.65,4.66-20.2-.17A11.93,11.93,0,0,0,258.42,223.52Z"/><path class="cls-1" d="M264.58,203a6.11,6.11,0,0,0-4.69-2.43c-2.56,1.59-4.2,4.55-4.89,8.83l12-.73A11.3,11.3,0,0,0,264.58,203Zm0,0a6.11,6.11,0,0,0-4.69-2.43c-2.56,1.59-4.2,4.55-4.89,8.83l12-.73A11.3,11.3,0,0,0,264.58,203Zm0,0a6.11,6.11,0,0,0-4.69-2.43c-2.56,1.59-4.2,4.55-4.89,8.83l12-.73A11.3,11.3,0,0,0,264.58,203Zm0,0a6.11,6.11,0,0,0-4.69-2.43c-2.56,1.59-4.2,4.55-4.89,8.83l12-.73A11.3,11.3,0,0,0,264.58,203Zm0,0a6.11,6.11,0,0,0-4.69-2.43c-2.56,1.59-4.2,4.55-4.89,8.83l12-.73A11.3,11.3,0,0,0,264.58,203Z"/><path class="cls-3" d="M237.45,217.42a69.16,69.16,0,0,1-.84,7.93,65.94,65.94,0,0,1-2,8.67l-1.35-.17V234h-36l-1.69-7.23,17.72-19.08c4.71-5.39,7.07-9.76,7.07-13.07a7,7,0,0,0-2.13-5.21c-1.43-1.39-3.48-2.08-6.21-2.08l-1.12.08-4,14.11h-8.82a53.61,53.61,0,0,1-1.44-13.38l.08-2.49a36,36,0,0,1,18.76-5.38q8.42,0,13.75,4.52a14.38,14.38,0,0,1,5.33,11.44,16.8,16.8,0,0,1-2.63,8.69,66.16,66.16,0,0,1-9.14,10.95L211.54,227.2l.32.56L225,225.59l6.24-9.7,3.59.9Z"/><path class="cls-3" d="M266.4,226.32a11.61,11.61,0,0,1-8-2.8,11.93,11.93,0,0,1-3.74-8l20.2.17,4.65-4.66c.06-5.12-1.55-9.25-4.8-12.39s-7.49-4.69-12.67-4.69a19.34,19.34,0,0,0-14.48,6.23,20.53,20.53,0,0,0-5.78,12.07,23.34,23.34,0,0,0-.19,3,20,20,0,0,0,2,9.08v0a18.7,18.7,0,0,0,3.89,5.25,20.61,20.61,0,0,0,14.8,5.61L266,235l12.59-7.14-2-4.56C272.62,225.29,269.22,226.32,266.4,226.32Zm-6.51-25.74a6.11,6.11,0,0,1,4.69,2.43,11.3,11.3,0,0,1,2.45,5.67l-12,.73C255.69,205.13,257.33,202.17,259.89,200.58Z"/></svg>