<svg xmlns="http://www.w3.org/2000/svg" viewBox="0 0 270.08 149.5"><title>safari-pinned-tab</title><path d="M125.05,92.75q-14.68-12.23-37.95-12L19.63,82.28l-.21,10.36,14.49,2.17V196.88a109.6,109.6,0,0,0-15.46,8.62l1.18,6.26H93l.21-10.37L69.3,197.67V166.18L90.24,166q21.49-.39,35.49-12.22t14-29.44Q139.72,105,125.05,92.75Zm-23.86,15.64a44.61,44.61,0,0,1,2.73,15.37c0,6.89-1.82,12.67-5.48,17.3s-9,6.93-16,6.93a58.46,58.46,0,0,1-13.1-1.57V100.67l24.26-2.93Q98.44,100.85,101.19,108.39Z" transform="translate(-18.45 -80.71)" style="fill:#231f20"/><path d="M242.21,82.86l.21,4.69A161.4,161.4,0,0,1,238.7,123H219.15l-3.72-21.32L183.94,99.5v43.62l43.41-3.33v22.3l-43.41-2v37.55l23.87,3.72-.21,10.37H134.27l-1.18-6.26a108.41,108.41,0,0,1,15.45-8.62V94.81l-14.48-2.17.21-10.36H242.42Z" transform="translate(-18.45 -80.71)" style="fill:#231f20;stroke:#231f20;stroke-miterlimit:10"/><path d="M246.45,212.42a69.16,69.16,0,0,1-.84,7.93,65.94,65.94,0,0,1-2,8.67l-1.35-.17V229h-36l-1.69-7.23,17.72-19.08c4.71-5.39,7.07-9.76,7.07-13.07a7,7,0,0,0-2.13-5.21c-1.43-1.39-3.48-2.08-6.21-2.08l-1.12.08-4,14.11h-8.82a53.61,53.61,0,0,1-1.44-13.38l.08-2.49a36,36,0,0,1,18.76-5.38q8.42,0,13.75,4.52a14.38,14.38,0,0,1,5.33,11.44,16.8,16.8,0,0,1-2.63,8.69,66.16,66.16,0,0,1-9.14,10.95L220.54,222.2l.32.56L234,220.59l6.24-9.7,3.59.9Z" transform="translate(-18.45 -80.71)" style="fill:#231f20"/><path d="M275.4,221.32a11.61,11.61,0,0,1-8-2.8,11.93,11.93,0,0,1-3.74-8l20.2.17,4.65-4.66c.06-5.12-1.55-9.25-4.8-12.39s-7.49-4.69-12.67-4.69a19.34,19.34,0,0,0-14.48,6.23,20.53,20.53,0,0,0-5.78,12.07,23.34,23.34,0,0,0-.19,3,20,20,0,0,0,2,9.08v0a18.7,18.7,0,0,0,3.89,5.25,20.61,20.61,0,0,0,14.8,5.61L275,230l12.59-7.14-2-4.56C281.62,220.29,278.22,221.32,275.4,221.32Zm-6.51-25.74a6.11,6.11,0,0,1,4.69,2.43,11.3,11.3,0,0,1,2.45,5.67l-12,.73C264.69,200.13,266.33,197.17,268.89,195.58Z" transform="translate(-18.45 -80.71)" style="fill:#231f20"/></svg>