<svg xmlns="http://www.w3.org/2000/svg" viewBox="0 0 16 16"><g id="f3a3b8d1-54b8-4950-9198-ad143fb0f552" data-name="black logo"><path d="M14.47,13.05a2.33,2.33,0,0,1-1.82.86,2.22,2.22,0,0,1-2.17-1.07,2.88,2.88,0,0,1-.27-.87,5.45,5.45,0,0,0,.22-1.48c0-.18,0-.35,0-.52h5.48a4.77,4.77,0,0,0-1-2.77A3.24,3.24,0,0,0,12.18,6,3.72,3.72,0,0,0,9.33,7.22a.88.88,0,0,0-.12.15L8.9,7A5.06,5.06,0,0,0,5.32,5.55a3.85,3.85,0,0,0-1.67.34A6.54,6.54,0,0,0,2.17,7l.39-4.1,1.62.2a14.37,14.37,0,0,0,1.49.09,4.14,4.14,0,0,0,2.6-.76A3.81,3.81,0,0,0,9.61.09L9,0a1.74,1.74,0,0,1-.76.89,2.46,2.46,0,0,1-1.21.27A10,10,0,0,1,5.3,1Q4.47.85,2.15.25L1.2,9.16l.64.06A4.23,4.23,0,0,1,2.91,7.09,2.81,2.81,0,0,1,5,6.28,2.17,2.17,0,0,1,7.12,7.89a8.55,8.55,0,0,1,.38,2.85,6.74,6.74,0,0,1-.59,3.15,2.7,2.7,0,0,1-2.6,1.48,3.66,3.66,0,0,1-1.41-.32Q2,14.66,2,14.12q0-.12.75-.66a1.61,1.61,0,0,0,.75-1.34A1.54,1.54,0,0,0,3,11,1.45,1.45,0,0,0,2,10.56a1.7,1.7,0,0,0-1.31.54,1.92,1.92,0,0,0-.5,1.36,3.12,3.12,0,0,0,1.4,2.66,5,5,0,0,0,3,.88,6,6,0,0,0,4.18-1.58,5.18,5.18,0,0,0,.83-.94,3.56,3.56,0,0,0,2.66,1.11,3.51,3.51,0,0,0,2.51-1,3.72,3.72,0,0,0,1.19-2.44h-.52A4.05,4.05,0,0,1,14.47,13.05Zm-4-5.62a1.78,1.78,0,0,1,1.7-1,1.66,1.66,0,0,1,1.45.75,2.74,2.74,0,0,1,.44,1.59v.67H10.31a3.65,3.65,0,0,0-.2-.64A3.62,3.62,0,0,1,10.48,7.43Z"/></g></svg>
